# xmcd
#
# Track frame offsets:
#  150
#  16140
#  30925
#  45682
#  65866
#  80923
#  95854
#  111275
#  126753
#  141106
#  156913
#  172395
#  188745
#  203244
#  218402
#  234114
#  249972
#
# Disc length: 3548 seconds
#
# Revision: 0
# Processed by: cddbd v1.4PL0 Copyright (c) Steve Scherf et al.
# Submitted via: AltoMP3_Maker 3.0
#
DISCID=ed0dda11
DTITLE=—борник - Ѕабье лето
DYEAR=1900
DGENRE=
TTITLE0=A New Day Has Come
TTITLE1=Whenever, whenever
TTITLE2=I'm Not A Girl, Not Yet A Woman
TTITLE3=One Step To Far
TTITLE4=4 My People
TTITLE5=In Your Eyes
TTITLE6=Murder On The Dancefloor
TTITLE7=Hey Baby
TTITLE8=Get The Party Started
TTITLE9=Calling
TTITLE10=On The Radio
TTITLE11=Wrong Impression
TTITLE12=Irresistible
TTITLE13=Music
TTITLE14=The Music's No Good Without You
TTITLE15=Lady Marmalade
TTITLE16=From Sarah With Love
EXTD=
EXTT0=
EXTT1=
EXTT2=
EXTT3=
EXTT4=
EXTT5=
EXTT6=
EXTT7=
EXTT8=
EXTT9=
EXTT10=
EXTT11=
EXTT12=
EXTT13=
EXTT14=
EXTT15=
EXTT16=
PLAYORDER=
